<?xml version="1.0" encoding="UTF-8" standalone="no"?>
<!-- Created with Inkscape (http://www.inkscape.org/) -->

<svg
   xmlns:dc="http://purl.org/dc/elements/1.1/"
   xmlns:cc="http://creativecommons.org/ns#"
   xmlns:rdf="http://www.w3.org/1999/02/22-rdf-syntax-ns#"
   xmlns:svg="http://www.w3.org/2000/svg"
   xmlns="http://www.w3.org/2000/svg"
   xmlns:sodipodi="http://sodipodi.sourceforge.net/DTD/sodipodi-0.dtd"
   xmlns:inkscape="http://www.inkscape.org/namespaces/inkscape"
   width="190.67264mm"
   height="236.07411mm"
   viewBox="0 0 675.61171 836.48307"
   id="svg4798"
   version="1.1"
   inkscape:version="0.91 r13725"
   sodipodi:docname="logo.svg">
  <defs
     id="defs4800" />
  <sodipodi:namedview
     id="base"
     pagecolor="#ffffff"
     bordercolor="#666666"
     borderopacity="1.0"
     inkscape:pageopacity="0.0"
     inkscape:pageshadow="2"
     inkscape:zoom="0.98994949"
     inkscape:cx="476.32202"
     inkscape:cy="383.56809"
     inkscape:document-units="px"
     inkscape:current-layer="layer1"
     showgrid="false"
     fit-margin-top="0"
     fit-margin-left="0"
     fit-margin-right="0"
     fit-margin-bottom="0"
     inkscape:window-width="1920"
     inkscape:window-height="1017"
     inkscape:window-x="-8"
     inkscape:window-y="-8"
     inkscape:window-maximized="1" />
  <metadata
     id="metadata4803">
    <rdf:RDF>
      <cc:Work
         rdf:about="">
        <dc:format>image/svg+xml</dc:format>
        <dc:type
           rdf:resource="http://purl.org/dc/dcmitype/StillImage" />
        <dc:title></dc:title>
      </cc:Work>
    </rdf:RDF>
  </metadata>
  <g
     inkscape:label="Layer 1"
     inkscape:groupmode="layer"
     id="layer1"
     transform="translate(27.478378,-193.59354)">
    <path
       style="fill:#edd97f"
       inkscape:connector-curvature="0"
       d="m 611.11056,288.67312 c 11.343,-13.54239 15.46852,-32.12932 3.97345,-52.84071 14.08236,-14.26308 20.8216,-25.07937 11.74852,-39.97932 L 321.30094,506.9956 c 22.76533,-3.59222 45.8987,-24.36751 165.88949,-141.30819 22.48984,-21.89043 41.55281,-40.95336 57.65383,-57.49517 21.09926,8.28192 50.584,-0.79555 66.2663,-19.51912 z m -48.67993,1.157 c 7.35631,-7.78827 13.92806,-14.93742 19.83428,-21.56648 0.0704,-0.11469 0.20944,-0.20944 0.28206,-0.28205 5.82465,-6.23899 11.47963,-11.79699 16.70926,-16.82387 5.79162,10.09784 -3.54152,39.38425 -36.83002,38.66804 z m -404.14098,389.52533 -0.0218,-0.0218 0.0156,-0.0155 0.0218,0.0218 -0.0156,0.0155 z"
       id="path5402" />
    <path
       id="path5357"
       d="m 492.48703,419.50793 c -41.58466,7.91384 -80.35931,-12.27071 -86.60662,-45.08928 -6.25095,-32.82103 22.39953,-65.8406 63.98661,-73.75802 41.58719,-7.9175 80.36242,12.27015 86.61278,45.08813 6.24481,32.82218 -22.40508,65.8448 -63.99277,73.75917 z m -597.87095,49.13211 -0.006,-0.0318 -0.0218,0.006 0.006,0.0318 0.0218,-0.006 z"
       inkscape:connector-curvature="0"
       style="fill:#b3bd77" />
    <path
       id="path5377"
       d="m 535.23614,367.27699 c -14.3027,2.61179 -27.231,-2.59331 -28.88277,-11.62204 -1.64861,-9.02929 8.60434,-18.47014 22.90709,-21.08196 14.29601,-2.61375 27.22489,2.59439 28.87659,11.62316 1.64868,9.02926 -8.60795,18.46765 -22.90091,21.08084 z m -639.04615,101.35991 -0.006,-0.0318 -0.0218,0.006 0.006,0.0315 0.0218,-0.002 z"
       inkscape:connector-curvature="0"
       style="fill:#be1e2d" />
    <g
       id="g5387"
       transform="matrix(3.1166557,0,0,3.1166557,-871.20172,275.03592)">
      <path
         id="path5389"
         d="m 451.722,44.335 c 0,-12.571 -48.806,-18.487 -90.216,-18.487 -41.412,0 -90.217,5.916 -90.217,18.487 l 75.427,107.224 5.872,69.083 c 0,0 -42.875,12.2 -45.197,12.776 -2.322,0.578 -3.624,4.066 -3.624,6.389 7.691,1.894 26.118,2.041 57.739,2.041 31.619,0 50.047,-0.147 57.738,-2.041 0,-2.322 -1.303,-5.811 -3.625,-6.389 -2.32,-0.576 -45.195,-12.776 -45.195,-12.776 l 5.871,-69.083 75.427,-107.224 z"
         inkscape:connector-curvature="0"
         style="fill:#d4daea" />
      <path
         id="path5391"
         d="m 281.924,42.57 c 16.641,-6.308 49.998,-9.327 79.582,-9.327 29.197,0 62.07,2.941 78.922,9.082 m -127.359,192.8 c 10.02,0.732 25.868,0.809 48.438,0.809 22.047,0 37.682,-0.071 47.734,-0.757"
         inkscape:connector-curvature="0"
         style="fill:none;stroke:#ffffff;stroke-linecap:round" />
    </g>
    <g
       id="g5548"
       transform="matrix(1.3710764,0,0,1.3710764,223.15477,410.62639)">
      <g
         id="g5506">
        <g
           id="g5508"
           transform="translate(-5.981753,-0.24590157)">
          <path
             style="fill:#ff3d3d;fill-opacity:1"
             d="m 31.965651,171.76062 c -17.03564,0 -30.8517772,13.95639 -30.8517772,31.16655 0,17.21018 13.8192522,31.16655 30.8517772,31.16655 17.041863,0 30.851764,-13.95637 30.851764,-31.16655 0,-17.21016 -13.809901,-31.16655 -30.851764,-31.16655 z"
             id="path5578"
             inkscape:connector-curvature="0" />
          <path
             style="fill:#fd5a30;fill-opacity:1"
             d="m -33.484124,136.81356 21.816589,22.03475 c 24.094864,-24.34419 63.171491,-24.34107 87.269472,0 L 97.41541,136.81356 c -36.146972,-36.51474 -94.7525639,-36.51474 -130.899534,0 z"
             id="path5576"
             inkscape:connector-curvature="0" />
          <path
             style="fill:#feae00;fill-opacity:1"
             d="m -77.1173,92.737807 21.813473,22.037873 c 48.1959592,-48.685274 126.336747,-48.685274 174.532717,0 l 21.8197,-22.037873 c -60.241838,-60.855819 -157.924057,-60.855819 -218.16589,0 z"
             id="path5574"
             inkscape:connector-curvature="0" />
          <path
             style="fill:#f1cb9e;fill-opacity:1"
             d="m -120.7536,48.658945 21.813471,22.037878 c 72.293948,-73.026367 189.511364,-73.026367 261.805309,0 L 184.67865,48.66206 c -84.34293,-85.200012 -221.086198,-85.200012 -305.43225,-0.003 z"
             id="path5510"
             inkscape:connector-curvature="0" />
        </g>
      </g>
      <g
         id="g5512" />
      <g
         id="g5514" />
      <g
         id="g5516" />
      <g
         id="g5518" />
      <g
         id="g5520" />
      <g
         id="g5522" />
      <g
         id="g5524" />
      <g
         id="g5526" />
      <g
         id="g5528" />
      <g
         id="g5530" />
      <g
         id="g5532" />
      <g
         id="g5534" />
      <g
         id="g5536" />
      <g
         id="g5538" />
      <g
         id="g5540" />
    </g>
  </g>
  <style
     id="style5481"
     type="text/css"><![CDATA[
	.st0{fill:#010101;}
]]></style>
</svg>
